<?xml version="1.0" encoding="UTF-8" standalone="no"?><!DOCTYPE svg PUBLIC "-//W3C//DTD SVG 1.1//EN" "http://www.w3.org/Graphics/SVG/1.1/DTD/svg11.dtd"><svg width="100%" height="100%" viewBox="0 0 2043 1984" version="1.1" xmlns="http://www.w3.org/2000/svg" xmlns:xlink="http://www.w3.org/1999/xlink" xml:space="preserve" xmlns:serif="http://www.serif.com/" style="fill-rule:evenodd;clip-rule:evenodd;stroke-linejoin:round;stroke-miterlimit:2;"><g><path d="M1653.88,1420.67l-49.472,-12.368l-1.546,40.196l17.006,6.184l-1.546,-29.374l30.92,9.276l-0,20.098l13.914,-12.368l9.276,-60.294l-13.914,7.73l-4.638,30.92Z" style="fill:#fff;"/><path d="M1597.66,626.377l-49.096,78.289l9.288,15.924l14.597,-22.558l30.519,87.578l19.904,-15.924l-13.269,-41.135l25.212,-27.865l7.961,-41.135l-13.269,-1.327l-6.635,31.846l-19.904,19.904l-14.596,-25.212l19.904,-37.154l-10.616,-21.231Z" style="fill:#fff;"/><path d="M1711.43,761.344l-29.193,59.712l90.232,29.193l-2.654,-41.135l-13.269,-0l-1.327,22.558l-19.904,-7.962l13.269,-50.424l-14.596,-6.634l-11.943,53.077l-18.577,-5.308l13.27,-34.5l-5.308,-18.577Z" style="fill:#fff;"/><path d="M16.989,537.594l51.697,10.552l-54.065,36.185l20.255,31.156l23.527,3.33l-12.82,-25.64l75.193,-57.501l-120.574,-24.621l16.787,26.539Z" style="fill:#fff;"/><path d="M1046.78,267.414c-5.936,-46.865 -43.868,-107.141 -74.023,-137.223l-15.757,9.916c-11.466,65.628 12.54,147.167 39.826,216.991l17.521,-18.423c-21.843,-51.754 -40.762,-112.468 -41.316,-167.279c11.778,3.386 42.589,80.285 51.043,108.606l22.706,-12.588Z" style="fill:#fff;"/><path d="M1109.51,200.572c-7.837,-46.865 -42.131,-123.167 -81.948,-153.249l-20.805,9.916c-15.139,65.628 8.779,175.212 44.808,245.036l12.877,-35.09c-18.585,-54.318 -42.196,-118.205 -36.517,-165.324c15.551,3.386 40.442,82.977 51.604,111.298l29.981,-12.587Z" style="fill:#fff;"/><path d="M1226.62,288.754c3.162,-19.854 11.265,-45.206 21.253,-71.343c25.251,-66.078 61.528,-126.922 61.528,-126.922l54.521,-5.536c-0,-0 14.238,32.611 15.948,67.337c1.158,23.503 -6.203,44.084 -16.943,71.1l-25.57,16.526c21.135,-50.464 24.066,-68.015 3.113,-137.2c-35.042,44.297 -71.389,135.431 -89.41,198.514l-24.44,-12.476Z" style="fill:#fff;"/><path d="M1288.2,306.766c33.167,-57.855 76.45,-93.701 124.697,-97.701c-1.969,33.272 -15.755,57.832 -45.729,86.795l19.068,39.792c25.121,-36.528 46.023,-84.905 47.446,-130.051l-43.302,-15.588c-77.609,-11.676 -98.675,45.043 -128.97,89.631l26.79,27.122Z" style="fill:#fff;"/><path d="M3.329,1136.5l609.292,489.918l-36.418,30.884l48.921,87.359l73.188,-30.898l-11.215,-59.56l757.111,295.365l-0.539,4.128l-27.042,29.501l-694.28,-273.149l4.027,32.827l-106.99,33.885l-75.272,-139.214l16.112,-17.119l-553.085,-445.779l-7.139,-36.7l3.329,-1.448Z" style="fill:#fff;"/><path d="M92.543,1037.98l147.843,-52.905c0,-0 -138.511,52.836 -134.442,55.842c164.72,121.715 480.446,454.789 480.446,454.789l-2.63,12.048l8.543,18.321l77.038,53.415l86.532,58.678l23.591,14.335l25.997,4.676l39.415,-41.685l547.12,116.931l88.332,-137.437c-0,-0 -77.646,145.547 -68.549,148.824l-25.631,1.221l20.042,9.684l-16.179,30.246l-38.787,3.632l32.235,7.753l-29.087,55.245l-682.027,-223.02l12.966,72.611l-49.271,20.746l-41.493,-70.018l41.493,-28.526l-516.059,-451.227l-15.183,-110.073l23.95,17.426l-36.205,-41.532Z" style="fill:#fff;"/><path d="M55.854,1244.36l78.441,60.842c120.71,326.616 435.065,559.744 803.44,559.744c37.665,0 74.764,-2.437 111.196,-7.168l98.374,39.349c-67.35,15.845 -137.49,24.219 -209.57,24.219c-422.207,0 -777.837,-287.317 -881.881,-676.986Zm1590.45,339.319c-43.585,53.633 -93.134,102.23 -147.659,144.795l10.871,-82.625c19.692,-17.684 38.561,-36.268 56.517,-55.662l80.271,-6.508Zm180.587,-369.838c-27.27,123.801 -72.843,218.231 -144.852,317.629l-64.255,-2.67c67.864,-88.568 117.968,-184.732 147.2,-295.712l61.907,-19.247Zm23.479,-198.985c-0.335,50.29 -4.745,99.619 -12.902,147.604l-58.593,7.102c6.532,-34.319 11.013,-69.336 13.314,-104.936l58.181,-49.77Zm-1779.27,-292.861l39.631,64.19c-18.322,68.182 -28.427,139.672 -29.198,213.374l-14.363,5.243l17.579,79.106c0.671,7.698 1.444,15.367 2.321,23.027l-54.883,16.064c-4.69,-37.495 -7.102,-75.621 -7.102,-114.305c-0,-100.137 16.162,-196.529 46.015,-286.699Zm1393.4,-458.482c25.765,18.255 50.537,37.65 74.223,58.128c177.012,153.035 293.311,366.507 309.336,616.17l-55.197,15.464c-13.694,-268.476 -123.916,-476.181 -329.262,-623.551l0.9,-66.211Zm-1198.09,127.165l17.652,65.175c-66.481,78.518 -119.081,169.137 -154.009,268.068l-42.722,-46.943c41.678,-106.633 102.84,-203.533 179.079,-286.3Zm260.93,-197.245l25.832,50.144c-77.7,39.17 -148.631,89.825 -210.593,149.752l-28.216,-50.987c63.241,-59.189 134.897,-109.49 212.977,-148.909Zm168.552,-64.949c77.026,-21.147 158.125,-32.443 241.841,-32.443c2.922,0 5.84,0.014 8.726,0.041l1.344,56.418c-3.364,-0.039 -6.715,-0.059 -10.07,-0.059c-72.305,0 -142.528,8.982 -209.673,25.904l-32.168,-49.861Z" style="fill:#fff;"/><g><path d="M766.287,800.946c9.68,-9.779 18.85,-19.128 27.314,-27.866c76.29,-78.762 170.181,-281.517 170.181,-281.517l-163.631,99.781l-134.859,-235.048l-16.364,-6.294l-39.02,-65.453l-47.831,-79.299l40.279,32.726l-23.916,-80.557l36.503,61.677l-6.293,-98.18l37.761,104.473l7.552,-84.334l16.364,94.404l27.691,28.951l18.881,-10.07l3.776,-62.936l22.657,54.125l-28.95,83.075l125.871,125.342l103.055,-128.115l-44.019,-79.403l113.687,37.792l32.44,-98.455l39.462,-119.088l-36.544,-7.266l10.07,-14.097l47.328,-45.314l108.753,9.063l0.416,0.513l-26.086,20.65l-93.145,13.846l85.593,1.259c0,-0 39.294,64.194 41.811,79.299c2.518,15.104 2.244,122.095 2.244,122.095c-5.804,47.452 -29.47,175.746 -29.47,175.746l32.485,-140.679l6.152,-155.3l-46.655,-79.765l65.338,85.93l-18.933,123.579l0.265,-1.149l23.533,21.432l-14.628,53.043l18.013,-49.96l27.697,25.819l-15.913,22.812l22.604,-17.313c60.76,-14.107 31.281,-40.725 74.321,-7.581l-0.096,-0.263l5.536,10.463l84.209,-48.747l-33.5,101.581c0,-0 63.15,236.925 39.933,463.316l96.799,-73.435l-99.806,99.025c-4.848,36.467 -12.106,72.415 -22.407,106.784l230.03,-142.635l-258.364,216.37c-12.73,26.372 -27.934,51.094 -45.99,73.551l675.942,-213.602l-626.44,336.425l483.425,-60.304l-621.867,188.665l317.519,68.044l-554.634,62.956l747.653,68.699l-999.14,102.999l-99.632,-65.686l-0.157,0.774l-24.584,0.593l-9.246,-23.285l-67.411,-44.58l-7.886,-25.627l-554.69,-878.568l488.042,551.171l-282.354,-972.38l401.045,724.841l-100.299,-513.417l234.53,383.879Zm452.598,144.375l114.359,-117.941l-0.183,3.797l-26.397,26.867l14.82,2.887l14.442,-5.514l24.899,-25.425l10.325,-10.309l-2.833,-16.204l0.929,-2.089l4.835,18.804l-11.527,12.103l-20.601,21.875l8.974,-0.38l10.902,-5.093l17.408,-22.71l5.67,-5.82l0.213,-16.051l0.925,-3.695l1.349,6.458l-0.395,14.077l-3.696,4.999l-17.192,21.243l9.024,-4.314l17.966,-22.116l9.005,-6.561l-1.513,-10.73l4.574,-38.865l-2.767,37.953l1.031,12.442l-9.354,7.367l-15.961,20.296l7.492,-0l14.638,-19.139l9.569,-12.561l-1.723,-9.132l14.735,-69.842l-11.582,-19.026l0.458,-3.892l-2.505,0.529l-0.017,-0.028l-0.002,0.032l-40.326,8.515l1.793,8.582l-5.354,0.175l-26.369,18.958l-36.727,24.845l-11.209,37.721l9.32,2.563l22.478,-18.444l4.459,4.905l-143.985,122.581l-178.779,-126.992l-13.547,-0.249l-344.892,149.006l-58.15,566.079l4.302,13.876l200.17,129.833l13.067,-3.891l329.337,-390.054l126.63,-268.491l-5.654,-17.629l-36.858,-26.181Zm-323.698,-130.718c31.693,-30.311 68.824,-54.744 93.992,-96.785c64.852,-108.331 114.347,-183.414 105.115,-441.723l-5.75,-14.824c5.472,241.718 -40.614,324.195 -112.075,453.088c-23.557,42.489 -47.331,66.113 -81.282,100.244c-4.003,3.827 -7.917,7.748 -11.71,11.81c4.037,-4.093 7.935,-8.015 11.71,-11.81Zm296.365,-690.021c-11.615,15.862 -21.928,15.454 -30.999,-0.477l-20.983,-2.862c-13.354,15.42 -24.799,14.307 -34.337,-3.338l0.953,15.261l18.6,24.322l8.107,68.674l36.245,0.954l5.246,-72.013l23.845,-20.983l-6.677,-9.538Z" style="fill:#fff;"/><path d="M615.235,1524.15l-9.12,-27.89c-0.092,-0.279 -0.114,-0.577 -0.067,-0.867l24.71,-150.527c0.089,-0.545 0.42,-1.021 0.899,-1.295c0,0 31.536,-18.02 31.536,-18.02l-24.399,-48.798c-0.164,-0.327 -0.226,-0.696 -0.178,-1.058l36.975,-281.244c0.119,-0.907 0.889,-1.588 1.804,-1.595c-0,0 50.173,-0.371 50.173,-0.371l-22.31,-45.084c-0.218,-0.44 -0.25,-0.949 -0.089,-1.413c0.161,-0.464 0.501,-0.845 0.944,-1.056l99.019,-47.131c0.441,-0.21 0.947,-0.236 1.407,-0.071c-0,0 60.273,21.611 60.273,21.611l1.504,-54.83c0.019,-0.683 0.416,-1.299 1.031,-1.598l96.405,-46.913c0.298,-0.145 0.63,-0.207 0.96,-0.178l48.207,4.151c0.333,0.029 0.651,0.148 0.921,0.345l193.668,141.028c0.362,0.265 0.616,0.653 0.712,1.092l10.585,48.495c0.092,0.423 0.032,0.866 -0.171,1.249l-42.482,80.243c-0.339,0.641 -1.025,1.022 -1.75,0.971c0,-0 -41.868,-2.972 -41.868,-2.972l11.47,50.368c0.106,0.467 0.026,0.957 -0.225,1.365l-43.766,71.379c-0.363,0.593 -1.03,0.929 -1.722,0.869c0,-0 -48.716,-4.228 -48.716,-4.228l8.404,51.3c0.079,0.484 -0.039,0.98 -0.328,1.376l-125.085,171.5c-0.297,0.407 -0.747,0.674 -1.247,0.738c0,0 -46.875,6.048 -46.875,6.048l5.965,34.301c0.085,0.485 -0.03,0.984 -0.317,1.384l-101.018,140.659c-0.365,0.508 -0.964,0.795 -1.588,0.762l-30.17,-1.625l42.508,27.281l317.825,-394.921l135.312,-264.33l-258.036,-188.807l-339.853,154.192l-66.083,558.555l24.246,15.56Zm53.378,34.258l-49.167,-33.179c-0,0 -9.707,-29.683 -9.707,-29.683c-0,-0 22.497,-137.052 24.496,-149.225c-0,0 32.283,-18.447 32.283,-18.447c0.844,-0.483 1.165,-1.541 0.73,-2.412l-24.923,-49.846c1.812,-13.789 36.693,-279.105 36.693,-279.105l51.506,-0.381c0.632,-0.005 1.216,-0.335 1.548,-0.872c0.331,-0.538 0.362,-1.209 0.082,-1.775l-22.784,-46.04c-0,0 96.649,-46.004 96.649,-46.004c0,0 61.938,22.207 61.938,22.207c0.553,0.198 1.168,0.12 1.653,-0.212c0.485,-0.332 0.782,-0.876 0.798,-1.463l1.543,-56.248c0,0 94.95,-46.205 94.95,-46.205c0,0 47.194,4.065 47.194,4.065c9.548,6.953 181.574,132.222 192.691,140.317c-0,0 10.294,47.159 10.294,47.159c-0,0 -41.609,78.595 -41.609,78.595c-0,-0 -43.144,-3.063 -43.144,-3.063c-0.579,-0.041 -1.143,0.195 -1.521,0.636c-0.378,0.44 -0.525,1.034 -0.396,1.6l11.853,52.05c-0,0 -42.784,69.777 -42.784,69.777c0,-0 -49.936,-4.334 -49.936,-4.334c-0.564,-0.049 -1.118,0.165 -1.503,0.58c-0.385,0.415 -0.556,0.984 -0.465,1.543l8.661,52.869c0,0 -124.168,170.243 -124.168,170.243c0,0 -47.993,6.193 -47.993,6.193c-0.496,0.064 -0.944,0.328 -1.241,0.731c-0.297,0.402 -0.416,0.909 -0.331,1.401l6.162,35.43c0,0 -99.984,139.219 -99.984,139.219l-35.611,-1.918l-84.457,-54.203Zm28.088,-541.739l43.618,-0.369l291.38,193.583l8.065,50.287l-115.367,159.082l-54.827,8.569l7.275,41.05l-96.603,133.865l-31.391,1.689l-118.149,-77.273l-8.876,-31.222l22.954,-138.845l38.994,-26.599l-23.28,-58.775l36.207,-255.042Zm278.731,-181.053l-4.144,4.836l77.646,350.749l33.536,2.412l37.776,-47.744l-8.677,-74.038c-0,-0 62.06,4.104 62.06,4.104l34.807,-64.702l-8.126,-37.568l-185.155,-135.499l-39.723,-2.55Zm4.78,8.29l32.114,2.061c13.377,9.79 165.636,121.216 180.837,132.34c-0,0 6.865,31.739 6.865,31.739c-0,-0 -30.987,57.602 -30.987,57.602c-0,-0 -61.723,-4.082 -61.723,-4.082l-4.219,4.438l8.85,75.512c-0,0 -33.112,41.848 -33.112,41.848c0,0 -23.408,-1.683 -23.408,-1.683l-75.217,-339.775Zm-247.231,108.724l9.875,32.285l284.055,190.4l6.111,-4.15l-71.633,-331.383l-5.779,-2.667l-66.406,35.681l0,74.934c0,-0 -81.576,-31.939 -81.576,-31.939l-74.647,36.839Zm264.283,-92.579l66.5,310.7l15.578,-1.443l23.326,-30.05l-11.992,-88.263l69.99,2.873l23.539,-43.36l-0.271,-26.082l-169.549,-124.084l-17.121,-0.291Zm-247.619,119.824l-7.065,-23.098c-0,-0 65.419,-32.285 65.419,-32.285c0,-0 83.736,32.784 83.736,32.784l5.436,-3.709l-0,-76.008c-0,-0 57.549,-30.922 57.549,-30.922c8.086,37.409 57.615,266.534 68.43,316.567l-273.505,-183.329Zm20.069,0.936l-1.714,-25.353l39.725,-18.891l100.628,41.506l2.697,-91.962l37.102,-23.265l53.989,270.203l-232.427,-152.238Z" style="fill:#fff;"/><path d="M888.779,1107.91l-200.961,458.073" style="fill:none;"/><path d="M730.333,1451.11l-44.345,119.326l8.822,5.563l54.18,-113.783l-18.657,-11.106Zm73.384,-197.466l34.283,21.645l72.595,-152.456l-46.871,-30.658l-60.007,161.469Z" style="fill:#fff;"/><path d="M722.057,1227l165.503,105.983l-94.905,147.295l-103.398,-64.72l32.8,-188.558Z" style="fill:#fff;"/></g><path d="M1349.67,733.838l52.091,-16.166l20.657,133.82l29.638,-148.19l-67.359,-24.249l-51.193,16.166l16.166,38.619Z" style="fill:#fff;"/><path d="M512.604,328.909l-40.431,71.531l38.357,-2.074l-20.733,60.127l15.55,-3.11l20.733,-73.603l-35.247,7.256l30.064,-46.65l29.027,55.98l7.256,-8.293l-36.283,-80.86l-16.587,8.293l8.294,11.403Z" style="fill:#fff;"/></g></svg>